<?xml version="1.0" encoding="UTF-8" standalone="no"?>
<svg
   xmlns:dc="http://purl.org/dc/elements/1.1/"
   xmlns:cc="http://creativecommons.org/ns#"
   xmlns:rdf="http://www.w3.org/1999/02/22-rdf-syntax-ns#"
   xmlns:svg="http://www.w3.org/2000/svg"
   xmlns="http://www.w3.org/2000/svg"
   id="svg100"
   width="604.3388888888888"
   version="1.1"
   height="303.8388888888889">
  <metadata
     id="metadata104">
    <rdf:RDF>
      <cc:Work
         rdf:about="">
        <dc:format>image/svg+xml</dc:format>
        <dc:type
           rdf:resource="http://purl.org/dc/dcmitype/StillImage" />
      </cc:Work>
    </rdf:RDF>
  </metadata>
  <defs
     id="defs2" />
  <g
     id="g94"
     transform="matrix(1.6694444,0,0,-1.6694444,302.16944,151.91944)">
    <path
       id="ellipse4"
       d="M 180,0 A 180,90 0 0 1 0,90 180,90 0 0 1 -180,0 180,90 0 0 1 0,-90 180,90 0 0 1 180,0 Z"
       style="fill:#ffffff;stroke:#000000;stroke-width:2" />
    <path
       id="ellipse6"
       d="M 30,0 A 30,90 0 0 1 0,90 30,90 0 0 1 -30,0 30,90 0 0 1 0,-90 30,90 0 0 1 30,0 Z"
       style="fill:none;stroke:#000000;stroke-width:1" />
    <path
       id="ellipse8"
       d="M 60,0 A 60,90 0 0 1 0,90 60,90 0 0 1 -60,0 60,90 0 0 1 0,-90 60,90 0 0 1 60,0 Z"
       style="fill:none;stroke:#000000;stroke-width:1" />
    <path
       id="ellipse10"
       d="M 90,0 A 90,90 0 0 1 0,90 90,90 0 0 1 -90,0 90,90 0 0 1 0,-90 90,90 0 0 1 90,0 Z"
       style="fill:none;stroke:#000000;stroke-width:1" />
    <path
       id="ellipse12"
       d="M 120,0 A 120,90 0 0 1 0,90 120,90 0 0 1 -120,0 120,90 0 0 1 0,-90 120,90 0 0 1 120,0 Z"
       style="fill:none;stroke:#000000;stroke-width:1" />
    <path
       id="ellipse14"
       d="M 150,0 A 150,90 0 0 1 0,90 150,90 0 0 1 -150,0 150,90 0 0 1 0,-90 150,90 0 0 1 150,0 Z"
       style="fill:none;stroke:#000000;stroke-width:1" />
    <path
       id="line16"
       d="M 0,-90 V 90"
       style="stroke:#000000;stroke-width:1" />
    <path
       id="line18"
       d="M -116.48204,-68.614746 H 116.48204"
       style="stroke:#000000;stroke-width:1" />
    <path
       id="line20"
       d="M -164.65878,-36.357548 H 164.65878"
       style="stroke:#000000;stroke-width:1" />
    <path
       id="line22"
       d="M -180,0 H 180"
       style="stroke:#000000;stroke-width:1" />
    <path
       id="line24"
       d="M -164.65878,36.357548 H 164.65878"
       style="stroke:#000000;stroke-width:1" />
    <path
       id="line26"
       d="M -116.48204,68.614746 H 116.48204"
       style="stroke:#000000;stroke-width:1" />
    <path
       id="path28"
       d="m -16.52,-83.761 0.828,-0.299 0.689,-0.415 0.426,-0.29 0.477,-0.337 -0.203,-0.205 -0.263,-0.165 -0.34,-0.151 -0.429,-0.124 -0.788,0.037 -0.795,0.213 -0.424,0.266 0.384,0.18 -0.075,0.221 -0.24,0.289 -0.225,0.252 -0.137,0.243 -0.167,0.285 v 0 h 0.186 l 0.347,0.151 z" />
    <path
       id="path30"
       d="m -33.668,-78.361 0.556,-0.367 0.354,-0.317 0.292,-0.299 -0.395,-0.11 -0.291,-0.156 -0.636,0.016 -0.241,0.313 -0.39,-0.11 -0.356,-0.11 -0.725,0.235 -0.536,0.332 0.054,0.317 v 0 l 0.195,0.096 0.61,-0.032 -0.445,0.417 -0.396,0.307 -0.913,0.67 -0.225,0.396 0.312,0.133 0.676,-0.315 0.523,-0.312 0.708,-0.376 0.638,-0.357 z" />
    <path
       id="path32"
       d="m -34.748,-72.479 -0.081,-0.196 -0.568,0.142 -0.405,-0.089 -0.207,-0.212 -0.206,-0.23 -0.03,-0.264 0.266,-0.35 0.364,-0.331 0.563,-0.295 -0.174,-0.207 -0.456,-0.069 0.004,-0.292 -0.028,-0.273 0.071,-0.374 0.279,-0.321 0.594,-0.353 0.589,-0.267 0.664,-0.2 0.704,-0.265 0.595,-0.329 0.475,-0.311 0.534,-0.325 0.564,-0.275 0.513,-0.305 0.992,-0.745 0.517,-0.298 0.438,-0.311 0.548,-0.309 0.491,-0.413 0.195,-0.318 0.105,-0.256 -0.424,-0.104 0.207,-0.268 0.128,-0.251 -0.185,-0.278 -0.355,-0.116 -0.24,-0.159 -0.268,-0.159 0.222,-0.3 -0.578,-0.028 -0.746,0.028 -0.512,-0.057 h -0.659 l 0.696,-0.282 0.842,-0.126 0.819,-0.195 0.743,-0.249 0.051,-0.218 -0.773,0.068 -0.126,-0.177 0.624,-0.283 0.61,-0.266 0.932,-0.224 0.67,-0.247 1.014,-0.244 0.924,-0.102 0.996,-0.177 0.926,-0.2 1.029,-0.197 0.97,-0.098 1.112,-0.17 0.905,-0.18 0.986,-0.201 0.923,-0.279 0.654,-0.217 -0.181,0.205 0.041,0.174 0.073,0.187 0.268,0.155 0.189,0.168 0.696,0.012 0.846,-0.084 0.807,-0.144 -0.235,0.264 0.133,0.183 0.732,0.012 0.413,0.136 0.403,0.136 0.539,0.088 0.57,0.113 0.327,0.165 -0.444,0.23 -0.361,0.234 -0.229,0.249 -0.637,-0.026 -0.591,-0.106 h -0.661 l -0.368,0.251 -0.491,0.51 0.011,0.15 0.364,0.164 0.474,0.166 0.277,0.208 0.292,0.21 0.132,0.283 0.446,0.128 0.468,0.1 0.236,0.057 0.6,0.029 0.531,0.101 0.421,0.144 0.407,0.174 0.37,0.175 0.478,0.235 0.271,0.252 0.319,0.223 0.021,0.301 -0.532,0.181 0.042,0.32 0.217,0.245 0.425,0.154 0.45,0.186 0.407,0.249 0.292,0.314 0.147,0.379 0.303,0.223 0.591,-0.048 0.285,-0.27 0.578,-0.032 -0.026,0.302 0.204,0.319 0.54,-0.08 0.158,-0.303 0.583,-0.048 0.617,0.144 0.606,0.095 0.556,-0.048 0.211,-0.333 0.532,0.27 0.501,0.143 0.562,0.112 0.558,0.113 0.522,0.193 0.57,0.129 0.456,0.178 0.348,0.294 0.345,-0.212 0.544,0.114 0.291,-0.39 0.223,-0.29 0.598,0.161 0.302,0.323 0.57,0.228 0.652,-0.049 0.11,-0.308 0.506,0.308 0.577,0.098 0.608,0.033 0.533,-0.016 0.53,-0.098 0.526,-0.049 0.123,-0.276 0.218,-0.243 0.61,0.146 0.602,0.032 h 0.567 l 0.566,0.016 0.561,0.114 0.585,0.097 0.573,0.228 0.564,0.147 0.569,0.082 0.531,0.23 0.564,0.463 0.47,0.284 0.467,-0.134 0.017,-0.299 0.319,-0.198 0.584,0.066 0.16,-0.297 0.229,-0.213 0.666,0.196 0.448,0.363 0.58,0.149 0.756,0.283 0.607,0.117 0.755,0.168 0.563,0.184 0.603,0.203 0.572,0.186 0.428,-0.102 0.741,0.305 0.551,0.239 0.504,-0.017 0.628,0.205 0.369,0.309 0.676,0.242 0.612,0.173 0.685,0.138 0.584,0.07 0.456,-0.052 0.456,-0.087 0.231,-0.242 -0.301,-0.379 0.209,-0.292 0.098,-0.238 0.552,-0.103 0.117,-0.237 0.196,-0.236 0.461,-0.051 0.617,0.169 0.857,0.355 0.306,-0.186 0.417,-0.102 0.392,-0.101 0.449,-0.068 h 0.539 l -0.653,-0.886 -0.293,-0.215 -0.548,-0.378 -0.764,-0.213 -0.796,-0.309 -0.355,-0.324 0.575,0.017 -0.502,-0.322 -0.663,-0.303 -0.685,-0.332 0.008,-0.252 0.432,-0.078 0.751,0.141 0.722,0.315 0.597,0.302 0.634,0.255 0.653,0.241 0.538,0.291 0.836,0.407 0.433,0.082 0.626,0.032 0.652,0.099 0.711,0.131 0.725,0.33 0.6,0.316 0.808,0.317 0.828,0.219 0.69,0.168 0.699,0.288 0.523,0.152 0.588,0.137 0.428,-0.086 0.616,0.086 0.686,0.102 0.53,-0.051 0.749,0.239 1.131,0.585 -0.139,-0.241 -0.344,-0.412 0.209,-0.171 0.423,-0.068 0.686,0.102 0.454,-0.068 0.49,-0.017 0.48,0.085 0.382,-0.051 0.116,-0.188 0.688,0.12 h 0.591 l 0.704,0.119 0.371,-0.119 0.856,0.29 0.77,0.292 0.786,0.241 1.797,0.659 0.169,-0.122 0.03,-0.243 -0.153,-0.311 -0.219,-0.533 0.511,-0.017 h 0.51 l 0.783,0.102 0.817,0.12 0.899,0.241 0.857,0.259 0.695,0.035 0.77,0.191 0.126,-0.174 -0.229,-0.276 -0.129,-0.276 0.677,0.035 -0.053,-0.223 0.22,-0.222 0.517,-0.085 0.708,0.068 0.989,0.273 0.927,0.275 0.643,0.069 0.258,-0.121 0.401,-0.086 0.81,0.138 h 0.504 l 0.311,-0.086 0.33,-0.086 0.833,0.155 0.898,0.137 0.645,0.035 h 0.638 l 0.706,0.086 0.659,0.069 1.099,0.434 0.807,0.367 -0.163,-0.245 -0.77,-0.4 -0.617,-0.363 -0.429,-0.292 0.115,-0.154 0.747,0.051 0.767,0.017 0.62,0.051 h 0.729 l 0.563,0.018 0.646,-0.035 0.454,-0.068 -0.281,-0.273 -0.911,-0.323 -0.29,-0.254 0.061,-0.202 0.027,-0.218 0.287,-0.15 0.354,-0.134 0.172,-0.133 0.549,-0.016 1.123,0.283 -0.182,-0.234 -0.349,-0.265 -0.11,-0.198 0.387,-0.082 0.305,-0.099 -0.727,-0.327 -0.02,-0.195 -0.52,-0.292 0.148,-0.129 0.624,0.016 0.379,-0.048 0.643,0.016 0.381,-0.064 0.18,-0.113 -0.133,-0.192 -0.037,-0.159 -0.48,-0.238 -1.162,-0.315 -1.252,-0.282 -1.501,-0.357 -1.181,-0.278 -1.41,-0.321 -1.043,-0.121 -1.291,-0.272 -1.195,-0.166 -1.347,-0.298 -1.394,-0.281 -1.238,-0.235 -1.404,-0.306 -1.232,-0.274 -1.421,-0.328 -1.149,-0.269 -1.018,-0.28 -1.11,-0.263 -0.972,-0.246 0.222,-0.095 -1.304,-0.297 -1.159,-0.107 -1.253,-0.146 -0.784,-0.027 -2.186,-0.38 -1.658,-0.31 -1.422,-0.241 -1.465,-0.239 -0.783,-0.21 -1.346,-0.256 -1.138,-0.228 -0.93,-0.201 -0.846,-0.186 -0.856,-0.184 -0.705,-0.181 -1.947,-0.277 -0.263,-0.12 -0.294,-0.042 -1.162,-0.161 1.783,0.139 -0.934,-0.171 -0.771,-0.128 L 0,-90 v 0 l -38.628,2.097 0.052,-0.004 -2.552,0.313 1.863,-0.17 -0.137,0.019 -0.328,0.045 -0.393,0.056 -0.338,0.048 -0.166,0.024 0.045,-10e-4 0.098,-0.009 2.23,-0.226 -1.605,0.226 -0.201,0.031 -0.085,0.098 1.234,-0.129 0.629,-0.065 1.803,-0.18 1.74,-0.135 1.861,-0.163 1.819,-0.121 -0.618,0.141 1.687,-0.101 1.794,-0.158 -0.71,0.148 -0.535,0.141 -1.768,0.248 -1.012,0.021 -1.636,0.127 -1.714,0.215 -1.47,0.121 -1.674,0.256 -1.434,0.239 -1.254,0.221 -1.52,0.248 -1.44,0.168 -1.459,0.218 -1.553,0.197 0.935,-0.037 0.167,0.099 1.556,-0.21 -0.444,0.185 -0.703,0.238 -0.803,0.215 -1.399,0.269 -1.277,0.182 -1.403,0.196 -0.882,0.04 -1.046,0.092 -0.978,0.066 -1.403,0.254 -1.447,0.216 -1.387,0.245 -3.6,0.807 0.485,-0.071 1.291,-0.224 0.333,0.07 0.203,0.098 1.585,-0.307 0.311,0.069 -0.119,0.154 -0.299,0.197 -0.49,0.241 0.326,0.071 -1.031,0.273 -1.148,0.274 -0.821,0.263 0.076,0.132 1.119,-0.249 0.122,0.147 -0.17,0.191 0.554,0.015 0.326,0.073 -0.006,0.179 -0.061,0.164 0.01,0.164 0.48,-0.045 0.483,-0.06 0.325,0.105 0.987,-0.135 0.548,0.015 0.258,0.105 0.807,-0.075 0.863,-0.074 0.514,0.029 0.669,-0.015 0.686,-0.014 0.509,0.029 -0.174,0.226 0.209,0.12 0.991,-0.166 0.166,0.136 -0.226,0.273 0.906,-0.243 0.854,-0.271 0.944,-0.254 -0.135,0.224 1.245,-0.283 0.805,-0.089 1.021,-0.207 0.48,0.044 0.203,0.133 0.713,-0.029 0.823,-0.104 0.898,-0.132 -0.556,0.325 -0.872,0.253 -0.841,0.27 -0.707,0.06 -0.917,0.287 -0.759,0.29 -1.47,0.587 0.592,-0.109 0.708,-0.046 0.496,0.046 0.806,-0.124 0.959,-0.231 0.787,-0.275 0.704,-0.046 0.353,0.107 0.302,0.153 0.374,0.092 0.831,-0.184 0.48,0.061 -0.766,0.603 1.047,-0.357 0.791,-0.139 0.427,0.077 0.946,-0.306 0.647,-0.031 0.713,-0.091 0.839,-0.168 -0.172,0.29 -0.309,0.276 0.988,-0.307 0.485,0.076 0.744,-0.167 0.748,-0.258 0.46,0.075 0.184,0.167 0.135,0.199 0.38,0.107 0.498,0.092 0.42,0.108 0.2,0.17 -0.084,0.249 -0.372,0.344 -0.512,0.332 -0.582,0.318 -0.601,0.32 -0.582,0.322 -0.51,0.292 -0.451,0.327 -0.366,0.329 -0.146,0.314 -0.219,0.349 -0.316,0.335 -0.541,0.371 -0.456,0.339 -0.176,0.393 0.019,0.258 0.006,0.327 0.094,0.277 0.187,0.261 -0.166,0.385 0.074,0.246 0.142,0.23 0.512,0.053 0.102,0.283 0.254,0.178 0.393,0.107 0.226,0.232 0.092,0.286 0.382,0.108 0.551,-0.233 0.036,-0.304 z" />
    <path
       id="path34"
       d="m -48.702,-62.566 1.372,-0.605 1.177,-0.252 0.045,-0.501 -0.631,-0.05 -0.623,0.354 0.07,-0.405 -0.364,-0.31 -0.846,0.112 -0.745,0.3 -0.852,0.145 -1.337,0.561 -1.159,0.543 -1.889,1.138 0.767,-0.214 1.542,-0.679 1.234,-0.363 0.017,0.464 -0.282,0.696 0.368,0.422 0.607,-0.12 v 0 l 0.618,-0.474 z" />
    <path
       id="path36"
       d="m 145.365,-48.81 -0.381,-0.458 1.159,0.45 -0.346,-0.469 -0.593,-0.465 -0.97,-0.511 -1.603,-0.809 -1.008,-0.441 -0.408,-0.525 -0.648,-0.013 -1.255,-0.411 -1.197,-0.71 -1.999,-1.093 -1.316,-0.48 -0.84,-0.306 -0.695,0.023 -0.006,0.354 -0.757,0.075 0.421,0.395 1.537,0.8 2.466,1.071 0.799,0.205 1.139,0.415 1.457,0.573 1.236,0.57 1.418,0.821 0.669,0.28 0.895,0.618 1.221,0.513 z" />
    <path
       id="path38"
       d="m 152.907,-43.457 -0.671,-1.195 0.87,0.774 0.055,-0.309 -0.825,-0.856 0.276,-0.368 0.48,-0.09 0.988,0.43 0.289,-0.13 -1.377,-1 -1.043,-0.655 -0.624,0.023 -0.638,-0.34 -0.506,-0.481 -0.381,-0.207 -1.065,-0.6 -1.377,-0.76 -1.212,-0.441 0.229,0.29 -0.146,0.16 1.628,0.913 0.475,0.613 -0.377,0.447 0.504,0.405 1.077,0.392 1.145,0.866 0.783,0.73 0.484,0.759 0.24,0.2 0.086,0.469 0.363,1.009 0.451,0.81 0.419,0.09 -0.161,-0.636 0.382,-0.297 z" />
    <path
       id="path40"
       d="m 49.191,-16.664 -0.003,-1.467 0.187,-0.569 -0.168,-0.583 -0.217,-0.358 -0.245,0.713 -0.227,-0.36 0.075,-0.901 -0.153,-0.514 -0.306,-0.28 -0.199,-1.026 -0.583,-1.41 -0.727,-1.661 -0.962,-2.274 -0.654,-1.661 -0.681,-1.381 -0.817,-0.281 -0.914,-0.502 -0.484,0.303 -0.671,0.424 -0.151,0.628 0.114,1.057 -0.181,0.952 0.045,0.861 0.299,0.865 0.472,0.208 0.06,0.4 0.589,0.913 0.192,0.767 -0.147,0.572 -0.085,0.762 0.059,1.115 0.42,0.679 0.218,0.77 0.491,0.044 0.573,0.249 0.386,0.22 0.431,0.017 0.634,0.693 0.888,0.75 0.359,0.613 -0.08,0.521 0.402,-0.146 0.628,0.848 0.089,0.735 0.377,0.547 0.295,-0.525 0.211,-0.52 z" />
    <path
       id="path42"
       d="m 141.003,-16.918 0.052,-0.956 0.777,0.459 0.158,-0.515 0.312,-0.476 -0.285,-0.539 -0.165,-1.043 -0.079,-0.606 0.189,-0.148 -0.145,-1.036 -0.352,-0.627 -0.036,-0.82 0.767,-0.63 0.419,-0.573 0.398,-0.524 -0.265,-0.292 0.177,-0.754 -0.296,-1.297 0.519,0.263 0.111,-0.519 0.331,0.184 -0.531,-1.267 0.253,-0.732 0.171,-0.455 0.153,-0.962 -0.336,-0.953 -0.414,-0.675 -0.551,-0.731 -0.245,-1 -0.793,-1.04 -0.555,-0.542 -1.028,-1.042 -0.495,-0.668 -0.836,-0.833 -1.253,-1.054 -1.135,-0.567 -1.079,-0.893 -0.786,-0.567 -1.132,-0.989 -0.852,-0.569 -1.002,-0.851 -0.846,-0.782 -0.297,-0.357 -0.874,-0.393 -1.007,-0.041 -1.241,-0.462 -0.819,-0.436 -0.991,-0.481 -0.224,0.496 -0.336,0.198 0.692,0.587 -0.673,-0.213 -1.528,-0.814 -0.451,0.304 -0.319,0.178 -0.417,0.081 -0.532,0.325 0.071,0.696 0.598,0.86 0.292,0.574 -0.039,0.462 -0.731,0.137 0.746,0.554 0.472,0.85 -1.07,-0.792 -0.956,-0.21 0.973,0.633 0.659,0.661 0.783,0.563 0.58,0.854 -1.477,-0.983 -0.861,-0.393 -1.058,-0.912 -0.319,0.472 0.499,0.609 0.072,0.834 -0.154,0.433 0.363,0.266 -0.654,0.702 -0.611,0.033 -0.48,0.564 -1.697,-0.109 -1.451,-0.416 -1.289,-0.386 -0.808,0.077 -1.355,-0.594 -0.96,-0.266 -0.587,-0.604 -0.655,-0.468 -0.776,-0.028 -0.63,-0.102 -0.643,0.21 -0.726,-0.126 -0.648,-0.053 -0.948,-0.612 -0.223,0.052 -0.668,-0.324 -0.677,-0.363 -0.613,0.045 h -0.592 l -0.445,0.731 -0.333,0.218 0.449,0.659 0.544,0.157 0.32,0.262 0.233,0.414 0.612,0.804 0.318,0.687 0.214,1.176 0.231,0.666 0.411,0.666 0.05,0.762 0.16,0.345 -0.163,0.468 0.357,0.923 -0.071,0.934 0.113,0.505 0.165,-0.512 0.207,1.099 0.303,-0.344 0.058,-0.458 0.274,0.606 -0.032,0.935 0.079,0.374 -0.06,0.356 0.402,0.69 0.32,0.293 0.381,0.598 0.186,0.699 0.737,0.862 -0.292,-0.913 0.733,0.825 0.935,0.401 0.665,0.512 0.901,0.441 0.472,0.094 0.208,-0.148 0.927,0.448 0.634,0.134 0.245,0.263 0.296,0.11 0.521,-0.028 1.145,0.353 0.722,0.535 0.479,0.646 0.784,0.614 0.209,0.483 0.246,0.658 1.012,1.031 0.072,-1.047 0.494,0.242 -0.161,0.573 0.491,0.589 0.348,-0.263 0.403,0.925 0.712,0.598 0.374,0.481 0.552,0.207 0.11,0.341 0.392,-0.142 0.102,0.306 0.48,0.175 0.519,0.164 0.57,-0.559 0.336,-0.722 0.61,-0.008 0.588,-0.115 -0.01,0.669 0.745,0.978 0.529,0.319 -0.072,0.305 0.608,0.698 0.704,0.431 0.469,-0.145 0.885,0.231 0.134,0.625 -0.63,0.403 0.567,0.178 0.584,-0.304 0.406,-0.502 0.754,-0.313 0.312,0.124 0.517,-0.376 0.665,0.35 0.344,-0.106 0.289,0.235 0.299,-0.605 -0.437,-0.655 -0.509,-0.493 -0.349,-0.041 -0.025,-0.488 -0.468,-0.609 -0.53,-0.599 -0.037,-0.344 0.562,-0.672 0.622,-0.39 0.359,-0.418 0.45,-0.719 0.275,10e-4 0.395,-0.311 0.008,-0.374 0.77,-0.411 0.801,0.414 0.434,0.651 0.394,0.538 0.357,0.666 0.625,0.968 0.055,0.589 0.183,0.354 0.1,0.698 0.397,0.92 0.258,0.248 -0.041,0.409 0.41,0.648 0.358,0.673 0.111,0.349 0.476,0.459 0.135,-0.599 -0.124,-0.768 0.207,-0.148 -0.095,-0.514 0.185,-0.622 -0.127,-0.691 z" />
    <path
       id="path44"
       d="m 108.155,-8.354 1.893,-0.123 0.276,0.507 1.78,-0.591 0.262,-0.797 1.462,-0.225 1.115,-0.73 -1.203,-0.468 -1.019,0.495 -0.904,-0.034 -1.018,0.091 -0.899,0.221 -1.089,0.469 -0.714,0.122 -0.433,-0.153 -1.751,0.506 -0.111,0.529 -0.901,0.09 0.804,1.176 1.203,-0.073 0.755,-0.481 0.403,-0.093 z" />
    <path
       id="path46"
       d="m 151.554,-6.754 -0.535,-0.102 -0.203,-0.345 -0.586,-0.299 -0.552,-0.288 -0.529,0.001 -0.767,0.358 -0.523,0.343 0.13,0.381 0.872,-0.179 0.558,0.096 0.221,0.59 0.147,0.031 0.018,-0.654 0.581,0.094 0.332,0.421 0.607,0.44 -0.034,0.726 0.6,0.023 0.181,-0.202 -0.092,-0.683 z" />
    <path
       id="path48"
       d="m 134.127,-1.421 0.199,-1.995 0.987,-0.738 0.912,1.308 1.178,0.744 0.889,0.002 0.838,-0.43 0.72,-0.442 1.061,-0.235 1.679,-0.85 1.791,-0.705 0.631,-0.632 0.492,-0.619 0.068,-0.726 1.563,-0.761 0.148,-0.653 -0.936,-0.132 0.09,-0.82 0.747,-0.807 0.391,-1.302 0.577,0.04 -0.156,-0.543 0.72,-0.209 -0.35,-0.231 0.933,-0.516 -0.195,-0.354 -0.677,-0.086 -0.166,0.318 -0.818,0.138 -0.957,0.184 -0.597,0.783 -0.423,0.675 -0.311,1.075 -1.203,0.537 -0.902,-0.35 -0.679,-0.406 -0.045,-0.906 -0.864,-0.422 -0.514,0.205 -1.016,0.051 -0.696,1.008 -0.965,0.248 -0.307,-0.35 -1.265,-0.038 0.591,1 0.68,0.341 -0.067,1.338 -0.352,1.034 -1.826,1.043 -0.813,0.103 -1.406,1.139 -0.341,-0.599 -0.392,-0.109 -0.191,0.452 0.035,0.536 -0.726,0.606 1.1,0.444 0.712,-0.024 -0.068,0.327 -1.463,0.003 -0.368,0.734 -0.886,0.228 -0.409,0.61 1.353,0.299 0.516,0.402 1.6,-0.507 z" />
    <path
       id="path50"
       d="m 125.217,1.752 -0.782,-1.224 -0.75,-0.237 -0.964,0.241 -1.666,-0.062 -0.873,-0.177 -0.144,-0.934 0.875,-1.097 0.552,0.559 1.871,0.419 -0.091,-0.568 -0.432,0.18 -0.451,-0.723 -0.895,-0.478 0.871,-1.581 -0.209,-0.423 0.788,-1.423 -0.085,-0.809 -0.569,-0.362 -0.347,0.433 0.574,1.009 -1.021,-0.477 -0.218,0.341 0.168,0.475 -0.668,0.723 0.143,1.202 -0.686,-0.375 -0.008,-1.438 -0.115,-1.762 -0.651,-0.179 -0.392,0.362 0.388,1.134 -0.068,1.189 -0.42,0.009 -0.262,0.845 0.449,0.807 0.174,0.98 0.523,1.859 0.206,0.509 0.834,0.916 0.789,-0.364 1.264,-0.171 1.149,0.051 0.966,0.896 z" />
    <path
       id="path52"
       d="m 105.477,-7.215 -1.106,-0.026 -0.75,1.03 -1.208,1.006 -0.382,0.747 -0.707,1.004 -0.461,0.925 -0.725,1.727 L 99.263,0.226 98.96,1.287 98.571,2.25 97.644,3.026 97.077,4.081 96.288,4.772 95.159,6.13 95.024,6.757 95.67,6.707 97.233,6.469 98.201,5.264 99.022,4.428 99.6,3.915 l 1,-1.325 1.017,-0.02 0.862,-0.844 0.595,-1.033 0.764,-0.564 -0.405,-1.007 0.567,-0.429 0.358,-0.031 0.15,-0.861 0.326,-0.688 0.73,-0.109 0.451,-0.781 -0.342,-1.533 z" />
    <path
       id="path54"
       d="m 117.839,2.255 1.149,-1.142 -1.183,-0.146 -0.327,-0.841 0.037,-1.118 -0.979,-0.843 -0.07,-1.229 -0.494,-1.885 -0.117,0.438 -1.172,-0.554 -0.346,0.753 -0.708,0.07 -0.476,0.395 -1.212,-0.443 -0.332,0.596 -0.658,-0.067 -0.816,0.142 -0.09,1.654 -0.491,0.343 -0.464,1.055 -0.139,1.079 0.1,1.143 0.571,0.82 0.745,-0.423 0.766,0.231 0.161,1.044 0.415,0.233 1.184,0.267 0.658,0.975 0.433,0.779 0.357,0.461 0.788,0.675 0.68,0.856 0.39,0.962 0.402,0.004 0.586,-0.622 0.106,-0.535 0.692,-0.344 0.869,-0.37 -0.025,-0.483 -0.664,-0.061 0.23,-0.601 -0.703,-0.42 -0.494,-1.113 0.792,-1.168 z" />
    <path
       id="path56"
       d="m 125.536,10.367 0.228,-0.817 0.159,-0.689 -0.193,-1.126 -0.528,1.254 -0.381,-0.624 0.43,-0.907 -0.222,-0.577 -1.252,0.715 -0.39,0.89 0.224,0.585 -0.714,0.582 -0.239,-0.51 -0.475,0.047 -0.644,-0.686 -0.212,0.36 0.243,1.036 0.573,0.346 0.467,0.463 0.441,-0.556 0.701,0.336 0.071,0.548 0.696,0.033 -0.23,0.949 0.91,-0.582 0.192,-0.618 z" />
    <path
       id="path58"
       d="m 117.407,22.676 0.718,-0.345 0.188,0.315 0.196,-0.308 0.015,-0.501 0.62,-0.869 0.064,-1.008 -0.452,-0.403 0.133,-0.981 0.488,-0.97 0.556,-0.134 0.395,0.144 1.407,-0.676 0.078,-0.664 0.395,-0.294 0.035,-0.563 -0.914,0.6 -0.525,0.641 -0.139,-0.448 -0.812,0.731 -0.846,-0.18 -0.558,0.269 -0.083,0.504 0.223,0.31 -0.369,0.282 -0.007,-0.439 -0.676,0.7 -0.296,0.53 -0.38,1.163 0.514,-0.399 -0.497,1.898 -0.057,1.096 z" />
    <path
       id="path60"
       d="m -69.878,24.326 0.793,-0.189 0.166,0.206 0.75,-0.006 0.503,-0.31 0.26,0.03 0.084,-0.428 0.533,0.024 -0.106,-0.359 0.421,-0.044 0.386,-0.443 -0.457,-0.493 -0.408,0.264 -0.455,-0.051 -0.307,0.057 -0.219,-0.22 -0.386,-0.075 -0.088,0.294 -0.356,-0.174 -0.553,-0.829 -0.212,0.193 0.02,0.348 -0.601,0.205 -0.475,-0.084 -0.573,0.088 -0.5,-0.226 -0.44,0.377 0.169,0.389 0.855,-0.167 0.709,-0.097 0.405,0.269 -0.329,0.523 0.109,0.461 -0.566,0.188 0.293,0.333 z" />
    <path
       id="path62"
       d="m -75.783,27.801 0.255,-0.438 0.927,0.135 0.26,-0.281 0.608,-0.743 0.455,-0.541 0.319,0.017 0.51,-0.245 -0.154,-0.339 0.695,-0.049 0.607,-0.493 -0.18,-0.282 -0.676,-0.153 -0.662,-0.06 -0.64,0.096 -1.407,-0.118 0.809,0.672 -0.313,0.313 -0.598,0.08 -0.242,0.347 -0.046,0.684 -0.553,-0.047 -0.803,0.322 -0.217,0.251 -1.19,0.186 -0.265,0.233 0.444,0.3 -0.915,0.061 -0.868,-0.622 -0.4,-0.017 -0.223,-0.292 -0.51,-0.132 -0.376,0.114 0.613,0.37 0.336,0.432 0.51,0.266 0.556,0.233 0.754,0.115 0.27,0.131 0.794,-0.085 0.742,-0.014 z" />
    <path
       id="path64"
       d="m 122.47,44.576 0.469,-0.905 0.643,-0.571 0.218,-0.804 -0.689,-0.538 -1.501,-0.07 -0.249,-1.312 -0.936,0.443 -0.701,0.858 -1.347,-0.253 -0.642,-0.541 -1.027,-0.022 1.529,-0.847 0.783,-1.967 -0.257,-0.489 -0.742,0.451 -0.495,1.045 -0.805,0.337 -0.926,0.791 0.588,0.355 -0.068,0.722 0.442,0.593 0.037,0.782 1.478,0.34 1.13,-0.233 -0.786,2.019 1.048,-0.541 0.276,1.131 0.093,0.438 -0.746,1.373 -1.368,1.254 -0.348,0.701 0.682,0.203 2.013,-1.541 0.858,-0.906 0.273,-1.131 z" />
    <path
       id="path66"
       d="m -42.215,59.32 -0.996,-0.912 0.686,0.353 0.39,-0.224 -0.459,-0.365 0.528,-0.288 0.484,0.256 0.6,-0.323 -0.62,-0.771 0.629,0.18 -0.171,-0.561 -0.069,-0.66 -0.764,-0.939 -0.376,-0.04 -0.426,0.202 0.583,0.873 -0.152,0.135 -1.355,-0.925 -0.453,0.038 0.799,0.501 -0.624,0.258 -0.873,-0.063 -1.501,0.032 0.046,0.315 0.682,0.373 -0.183,0.287 0.991,0.635 1.701,1.666 0.795,0.59 0.846,0.356 0.319,-0.046 -0.299,-0.28 z" />
    <path
       id="path68"
       d="m 107.942,59.383 3.3,-1.853 -1.6,0.348 1.514,-1.526 2.136,-1.092 0.897,-0.749 -1.391,0.646 0.487,-0.83 -1.236,0.9 -1.205,1.038 -1.555,1.142 -0.874,0.794 -1.872,1.395 -1.873,1.015 -1.983,1.398 -0.039,0.468 -1.005,0.468 0.098,0.142 1.218,-0.669 1.73,-0.981 1.46,-1.01 z" />
    <path
       id="path70"
       d="m -1.995,67.304 -0.762,-1.052 0.694,0.134 0.74,-0.006 -0.197,-0.799 -0.648,-0.886 0.717,-0.063 0.659,-1.285 0.485,-0.161 L 0.134,62.033 0.342,61.63 1.229,61.436 1.151,60.78 0.778,60.479 1.081,59.945 0.413,59.402 l -1.005,0.01 -1.285,-0.286 -0.346,0.204 -0.514,-0.487 -0.695,0.118 -0.551,-0.399 -0.392,0.209 1.157,1.092 0.676,0.223 -1.16,0.173 -0.189,0.41 0.786,0.318 -0.376,0.551 0.171,0.668 1.072,-0.092 0.125,0.588 -0.466,0.635 -0.853,0.177 -0.154,0.272 0.28,0.446 -0.214,0.275 -0.405,-0.472 0.02,0.959 -0.313,0.504 0.319,1.013 0.573,0.788 0.526,-0.076 z" />
    <path
       id="path72"
       d="m -97.76,74.65 -0.25,-0.218 1.712,0.636 1.123,-0.13 -1.211,-0.823 -1.621,-0.387 -1.192,-0.092 -2.366,-0.877 -0.731,-0.189 -0.482,0.027 0.389,0.315 -0.066,0.263 0.94,0.388 -0.176,0.146 -0.979,-0.115 0.572,0.311 1.072,0.329 -1.288,-0.21 -0.939,-0.418 -1.398,-0.38 10.485,3.476 -0.777,-0.65 -1.183,-0.859 z" />
    <path
       id="path74"
       d="m -46.623,77.152 -1.422,-0.865 1.778,0.664 -0.248,-0.545 -1.144,-0.635 -0.351,-0.584 1.498,0.626 1.509,0.737 1.48,0.924 0.622,-0.064 0.565,-0.123 0.062,-0.417 -0.585,-0.421 -1.054,-0.455 -0.271,-0.461 -0.653,-0.422 -1.926,-0.612 -0.969,-0.136 -0.21,0.264 -0.788,-0.442 -1.585,-0.75 -0.702,-0.392 -1.503,-0.612 -0.931,-0.06 -0.99,-0.385 -0.832,-0.596 -0.862,-0.116 -1.742,-0.751 -2.041,-1.056 -1.188,-0.747 -1.394,-1.113 0.781,-0.161 -0.746,-0.909 -0.511,-0.742 1.165,0.194 0.813,-0.426 0.297,-0.374 0.02,-0.469 0.601,-0.273 0.335,-0.42 1.107,-0.058 0.676,-0.097 -0.907,-0.87 -0.675,-1.018 -0.44,-1.144 0.31,-0.979 0.84,0.336 1.246,1.057 0.962,1.606 -0.042,0.53 1.545,0.471 1.408,0.699 0.998,0.69 0.539,0.658 0.315,0.831 -0.103,0.729 1.778,1.006 0.601,0.86 1.363,1.463 0.665,0.214 0.782,-0.252 0.54,-0.091 0.768,0.244 0.249,-0.314 0.224,-0.542 -0.166,-0.364 1.061,-0.071 -0.759,-0.796 -0.869,-1.21 0.473,-0.151 -10e-4,-0.57 1.412,0.538 1.518,1.059 0.805,0.443 -0.208,-0.852 -0.117,-1.232 -0.131,-1.173 -0.724,-0.619 0.529,-0.56 0.243,-0.57 0.954,-0.259 0.251,-0.32 -0.247,-0.854 0.48,-0.135 0.063,-0.383 -0.611,-1.149 -0.756,-0.386 -0.739,-0.363 -1.441,-0.367 -1.44,-0.854 -1.379,-0.17 -1.487,0.22 -1.13,0.007 -0.829,-0.072 -1.113,-0.75 -1.271,-0.466 -1.996,-1.399 -1.512,-0.984 0.777,0.175 2.115,1.398 2.163,0.878 1.211,0.105 0.373,-0.516 -1.148,-0.71 -0.41,-1.147 -0.19,-0.808 0.747,-0.537 1.401,0.156 1.423,1.205 -0.349,-0.777 0.316,-0.389 -1.345,-0.706 -2.112,-0.645 -1.029,-0.439 -1.312,-0.785 -0.581,0.08 0.452,0.922 1.877,0.896 -1.305,-0.036 -0.966,-0.131 -0.055,-0.355 -1.15,-0.526 -1.04,-0.376 -1.039,-0.323 -0.861,-0.715 -0.201,-0.181 -0.32,-0.582 -0.033,-0.584 0.331,-0.028 0.122,0.403 0.122,-0.245 -0.229,-0.316 -0.656,-0.179 -0.391,0.021 -0.719,-0.193 -0.393,-0.055 -0.515,-0.055 -0.869,-0.321 1.342,0.209 0.14,-0.21 -1.351,-0.333 -0.538,-0.002 0.097,0.136 -0.419,-0.308 0.222,-0.051 -0.597,-0.801 -1.058,-0.862 0.083,0.288 -0.158,0.059 -0.136,0.279 -0.131,-0.603 0.101,-0.2 -0.188,-0.424 -0.492,-0.438 -0.927,-0.901 -0.057,0.045 0.643,0.768 -0.226,0.431 0.375,0.932 -0.414,-0.485 -0.177,-0.713 -0.459,0.168 0.39,-0.354 -0.488,-1.076 0.212,-0.078 -0.095,-0.393 -0.404,-1.139 -0.943,-0.848 -1.068,-0.339 -0.884,-0.674 -0.478,-0.073 -0.639,-0.423 -0.298,-0.386 -1.311,-0.75 -0.745,-0.551 -0.719,-0.688 -0.484,-0.826 -0.167,-0.81 -0.086,-1.001 0.095,-0.83 -0.182,-0.508 -0.048,-1.367 -0.302,-0.798 -0.195,-0.46 -0.472,-0.725 -0.329,-0.149 -0.416,0.143 0.024,0.521 -0.265,0.273 -0.142,1.018 -0.107,0.902 0.031,0.461 0.486,0.781 -0.008,0.645 -0.322,0.979 -0.284,0.179 -1.142,-0.531 -0.14,0.059 -0.216,0.545 -0.45,0.288 -1.095,-0.146 -0.754,0.129 -0.731,-0.08 -0.46,-0.164 0.03,-0.329 -0.221,-0.474 0.096,-0.232 -0.24,-0.153 -0.268,0.172 -0.44,-0.222 -0.651,0.037 -0.415,0.618 -0.865,-0.146 -0.545,0.271 -0.607,-0.082 -0.896,-0.273 -1.229,-0.869 -1.143,-0.506 -0.753,-0.562 -0.443,-0.53 -0.355,-0.815 -0.189,-0.567 0.014,-0.404 0.001,-0.002 -0.004,-0.002 -0.774,-1.037 -0.494,-0.856 -0.655,-1.599 -0.297,-0.584 -0.059,-0.654 0.101,-0.585 -0.109,-0.932 0.361,-0.896 0.021,-0.688 0.208,-0.594 0.937,-0.321 0.263,-0.506 0.94,0.338 0.771,0.122 0.783,0.217 0.664,0.208 0.749,0.492 0.425,0.704 0.371,1.011 0.27,0.351 0.743,0.315 1.095,0.279 0.835,-0.042 0.61,0.101 0.155,-0.254 -0.2,-0.579 -0.717,-0.715 -0.43,-0.734 0.121,-0.21 -0.282,-0.521 -0.484,-0.943 -0.167,0.31 -0.208,-0.02 -0.041,-0.177 0.182,-0.006 -0.099,-0.329 -0.285,-0.523 0.039,-0.188 -0.205,-0.434 0.034,-0.116 -0.254,-0.613 -0.264,-0.322 -0.185,-0.038 -0.286,-0.421 0.27,-0.22 0.124,0.181 0.253,-0.155 0.091,-0.048 0.26,0.214 0.283,0.017 0.069,-0.099 0.165,0.061 0.43,-0.11 0.458,0.032 0.343,0.134 0.143,0.136 0.298,-0.063 0.216,-0.082 0.261,0.028 0.217,0.106 0.41,-0.169 0.149,-0.027 0.252,-0.227 0.227,-0.273 0.319,-0.186 0.192,-0.335 -0.107,-0.117 -0.102,-0.271 0.017,-0.446 -0.302,-0.416 -0.192,-0.491 -0.125,-0.537 10e-4,-0.315 -0.065,-0.551 -0.17,-0.12 -0.174,-0.523 0.019,-0.323 -0.248,-0.313 -0.002,-0.331 0.123,-0.201 0.159,-0.666 0.319,-0.493 0.4,-0.524 0.304,-0.44 -0.05,-0.26 0.39,-0.056 0.105,0.1 0.239,-0.302 0.498,0.089 0.457,0.31 0.63,0.248 0.381,0.367 0.539,-0.072 -0.051,-0.121 0.548,-0.042 0.418,-0.212 0.283,-0.369 0.338,-0.34 0.509,-0.039 0.835,0.857 0.423,0.131 0.055,0.406 0.305,1.036 0.638,0.569 0.626,0.023 0.112,0.255 0.76,-0.102 0.856,0.618 0.421,0.274 0.557,0.589 0.339,-0.075 0.215,-0.322 -0.245,-0.412 -0.065,-0.289 -0.598,-0.143 0.254,-0.556 -0.088,-0.641 -0.516,-0.712 0.273,-0.973 0.436,0.079 0.314,0.887 -0.259,0.432 0.057,0.928 1.292,0.498 -0.065,0.577 0.396,0.385 0.245,-0.859 0.69,-0.02 0.562,-0.683 -0.007,-0.406 0.888,-0.011 1.07,0.126 0.509,-0.549 0.742,-0.151 0.595,0.383 0.043,0.308 1.233,0.074 1.187,0.017 -0.877,-0.362 0.282,-0.578 0.784,-0.093 0.697,-0.603 0.076,-0.984 0.519,0.028 0.367,-0.29 0.619,-0.452 0.56,-0.801 -0.012,-0.633 0.373,-0.029 0.499,-0.6 0.37,-0.429 1.182,-0.247 0.118,0.222 0.811,0.089 1.055,-0.331 0.332,-0.135 0.721,-0.292 1.015,-1.039 0.148,-0.505 0.342,0.058 0.226,-0.682 0.514,-2.156 0.532,-0.204 0.018,-0.851 -0.757,-1.016 0.311,-0.372 1.768,-0.193 0.043,-1.237 0.754,0.809 1.26,-0.443 1.667,-0.753 0.497,-0.723 -0.152,-0.683 1.155,0.38 1.956,-0.652 1.492,0.048 1.497,-1.02 1.309,-1.381 0.779,-0.355 0.854,-0.05 0.372,-0.388 0.39,-1.568 0.193,-0.744 -0.307,-2.031 -0.464,-0.802 -1.297,-1.706 -0.536,-1.383 -0.651,-1.06 -0.245,-0.024 -0.202,-0.898 0.272,-2.282 -0.085,-1.871 -0.017,-0.799 -0.254,-0.477 0.019,-1.615 -0.773,-1.572 0.008,-1.24 -0.697,-0.519 -0.115,-0.717 -1.032,0.003 -1.42,-0.459 -0.578,-0.531 -0.998,-0.348 -0.936,-0.948 -0.565,-1.177 0.045,-0.884 0.292,-0.652 0.086,-1.19 -0.081,-0.573 -0.493,-0.645 -0.507,-2.055 -0.554,-0.922 -0.465,-0.541 -0.096,-1.099 -0.396,-0.659 -0.165,-0.722 -0.799,-0.636 -0.727,0.229 -0.439,-0.123 -0.981,0.492 -0.59,-0.037 -0.752,0.635 0.139,-0.599 1.456,-0.981 0.151,-0.786 0.72,-0.495 0.152,-0.554 -0.299,-1.449 -1.041,-0.603 -1.623,-0.234 -0.987,0.113 0.461,-0.668 0.186,-0.836 0.402,-0.561 -0.33,-0.391 -0.79,-0.153 -0.993,0.404 -0.189,-0.29 0.639,-1.099 0.721,-0.331 0.288,0.347 0.519,-0.572 -0.594,-0.34 -0.32,-0.681 0.446,-1.096 0.117,-0.581 -0.76,-0.003 -0.324,-0.553 0.228,-0.807 1.23,-0.784 0.877,-0.215 0.288,-0.954 -0.555,-0.596 0.278,-1.232 -0.424,-0.412 0.017,-0.487 0.975,-1.075 0.905,-0.595 -0.346,0.052 -0.66,0.008 -0.172,-0.253 -0.39,-0.369 0.596,-0.949 -0.287,-0.024 -1.066,0.33 -1.377,0.709 -1.361,0.586 -0.727,0.651 -0.241,0.606 -0.885,0.691 -1.367,1.788 -0.362,1.018 0.29,0.824 -1.401,0.311 0.153,0.949 -0.817,1.799 1.128,-0.383 -0.856,2.265 -0.717,0.293 0.509,-1.371 -0.606,0.155 -0.62,1.572 -0.801,2.056 0.005,0.764 -0.784,1.095 -0.676,1.272 0.349,0.037 -0.287,1.835 -0.159,1.832 -0.3,1.719 -0.858,1.738 -0.072,0.962 -0.606,1.444 0.072,1.435 -0.527,2.287 -0.384,2.47 -0.373,2.676 -0.517,1.969 -0.557,1.701 -1.111,0.695 -0.182,0.497 -2.161,1.218 -1.993,1.329 -0.887,0.751 -0.575,1.007 0.104,0.352 -1.078,1.603 -1.278,2.259 -1.213,2.444 -0.462,0.56 -0.396,0.905 -0.842,0.803 -0.748,0.499 0.282,0.549 -0.559,1.175 0.264,0.863 0.76,0.778 0.498,0.922 -0.232,0.539 -0.365,-0.573 -0.615,0.54 0.194,0.348 -0.19,1.12 0.348,0.185 0.178,0.769 0.379,0.795 -0.066,0.503 0.55,0.265 0.695,0.491 -0.129,0.382 0.375,0.093 -0.029,0.618 0.247,0.447 0.499,0.082 0.448,0.775 0.41,0.647 -0.355,0.293 0.226,0.716 -0.157,1.126 0.235,0.324 -0.08,1.041 -0.349,0.655 -0.3,0.355 -0.151,0.663 0.278,0.329 -0.244,0.084 -0.143,0.406 -0.458,0.341 -0.443,-0.078 -0.247,-0.428 -0.433,-0.308 -0.221,-0.043 -0.124,-0.256 0.411,-0.667 -0.286,-0.157 -0.16,-0.182 -0.469,-0.063 -0.104,0.734 -0.149,-0.209 -0.321,0.073 -0.152,0.494 -0.399,0.082 -0.243,0.144 -0.427,-0.002 -0.058,-0.267 -0.095,0.186 -0.51,0.272 -0.174,0.258 0.139,0.214 -0.005,0.271 -0.241,0.294 -0.361,0.241 -0.322,0.157 -0.019,0.359 -0.232,0.219 0.018,-0.356 -0.235,-0.293 -0.183,0.34 -0.303,0.121 -0.103,0.247 0.056,0.374 0.185,0.386 -0.254,0.172 0.261,0.237 -0.285,0.386 -0.385,0.494 -0.152,0.412 -0.352,0.384 -0.399,0.552 0.143,0.189 0.13,-0.184 0.089,0.087 -0.102,0.382 -0.279,0.106 -0.161,-0.288 -0.567,0.018 -0.333,0.117 -0.361,0.243 -0.533,0.076 -0.228,0.262 -0.463,0.213 -0.608,0.022 -0.401,0.242 -0.425,0.503 -0.823,1.31 -0.413,0.395 -0.722,0.317 -0.566,-0.088 -0.893,-0.458 -0.52,-0.12 -0.614,0.321 -0.675,0.231 -0.772,0.557 -0.686,0.17 -0.953,0.564 -0.653,0.579 -0.154,0.324 -0.522,0.072 -0.879,0.383 -0.237,0.552 -0.825,0.685 -0.236,0.76 -0.033,0.587 0.36,0.117 0.019,0.343 0.329,0.312 0.151,0.416 -0.128,0.538 0.09,0.477 -0.091,0.604 -0.369,1.188 -0.566,0.93 -0.139,0.741 -0.592,0.485 -0.042,0.289 0.479,0.732 -0.347,0.276 -0.276,0.574 0.173,0.822 -0.45,0.096 -0.222,0.619 -0.133,0.571 0.154,0.366 -0.012,0.882 0.179,0.893 0.272,0.447 -0.386,0.461 -0.332,-0.051 -0.325,0.32 -0.428,-0.471 -0.178,-0.558 -0.414,-0.875 0.044,-0.482 0.24,-0.806 0.005,-0.276 0.095,-0.084 -0.09,-0.403 0.173,0.016 -0.205,-0.759 0.131,-0.299 -0.009,-0.418 0.293,-0.601 -0.206,-1.101 0.043,-0.52 0.014,-0.556 -0.221,-0.628 0.439,-0.039 0.151,-0.542 0.124,-0.533 -0.109,-0.213 -0.576,-0.44 -0.166,0.006 0.044,0.727 -0.336,0.68 -0.434,0.575 -0.349,0.303 0.423,0.869 0.155,0.642 -0.272,0.367 -0.387,0.528 -0.197,-0.152 -0.084,0.307 -0.432,0.286 -0.2,0.685 0.114,0.089 0.347,-0.067 0.571,0.439 0.313,0.53 -0.258,0.837 -0.36,0.324 0.075,0.73 0.106,0.764 0.136,0.929 0.28,1.042 0.225,0.59 -0.147,0.663 -0.325,0.137 0.124,0.33 -0.46,0.058 -0.106,0.31 -0.747,0.113 -0.097,0.185 0.337,0.628 -0.017,1.145 0.483,1.576 0.237,0.262 -0.083,0.372 0.106,0.942 0.653,0.913 0.075,0.609 1.001,0.92 0.833,0.948 0.524,0.843 1.311,1.032 2.167,1.969 1.369,1.441 0.745,0.912 0.322,0.492 0.327,0.207 0.721,-0.36 -0.674,-1.004 0.496,0.281 0.824,0.872 0.706,0.865 -0.1,0.003 -0.281,1.03 0.001,0.451 -0.834,0.43 0.745,0.916 0.924,0.631 -0.36,0.436 0.989,0.821 0.159,0.735 0.727,0.518 0.162,0.377 -0.148,0.319 1.117,0.866 0.364,0.797 1.133,0.923 -0.539,0.062 -1.024,0.024 -0.307,0.279 0.396,1 -0.295,0.182 -0.504,0.34 -1.047,-0.081 -0.432,0.437 0.031,0.403 -1.104,-0.2 -1.161,-0.66 -0.476,-0.061 -1.138,-0.199 -1.201,-0.323 -1.121,-0.205 1.009,0.565 2.155,0.933 1.267,0.29 0.31,0.236 -1.885,-0.525 -1.713,-0.631 -2.29,-0.681 -0.431,-0.467 -1.962,-0.696 -1.495,-0.407 -1.239,-0.299 -0.981,-0.434 -2.014,-0.509 -1.072,-0.466 -1.588,-0.425 -0.341,0.077 -1.16,-0.278 -1.331,-0.341 -1.194,-0.335 -1.738,-0.288 0.194,0.169 1.629,0.469 1.254,0.309 1.75,0.545 1.07,0.112 1.096,0.407 2.058,0.59 0.524,0.196 1.159,0.346 1.541,0.739 1.462,0.571 -1.344,-0.292 0.116,0.166 -1.058,-0.352 0.547,0.49 -0.875,-0.346 0.723,0.481 -1.444,-0.386 h -0.406 l 1.119,0.574 0.851,0.352 0.299,0.34 -1.232,-0.183 0.417,0.447 0.059,0.228 1.186,0.535 0.421,0.401 1.481,0.537 1.716,0.518 1.343,0.473 0.651,0.067 0.066,-0.147 1.542,0.442 0.249,-0.078 1.133,0.283 0.892,0.415 0.069,0.163 1.294,0.348 -0.384,-0.01 -1.11,-0.196 -0.675,-0.2 0.032,0.199 -1.086,-0.101 -0.311,0.216 0.689,0.362 0.642,0.519 1.797,0.37 2.418,0.431 h 0.459 l -1.253,-0.44 1.284,0.034 0.993,0.545 0.226,0.333 0.821,0.433 0.531,0.368 0.054,0.271 1.622,0.446 1.012,0.027 1.805,0.385 1.358,0.408 1.733,0.394 0.781,0.095 2.076,0.365 0.283,-0.055 2.109,0.436 0.206,-0.171 -0.767,-0.37 0.698,0.159 0.687,-0.049 -0.59,-0.189 0.353,-0.141 0.748,0.083 0.311,-0.261 0.753,-0.078 0.092,-0.108 1.042,0.135 0.094,-0.25 0.246,-0.117 0.433,-0.202 -0.21,-0.406 0.353,-0.078 1.33,0.353 1.278,0.262 0.51,-0.102 1.672,0.367 1.34,0.207 -0.494,-0.345 0.851,0.195 1.067,0.39 0.13,-0.088 -0.922,-0.747 2.006,0.566 -1.406,-0.634 0.947,0.138 0.753,0.244 0.507,-0.049 -0.003,-0.351 0.545,-0.31 0.417,-0.143 0.627,0.054 -0.171,-0.431 -1.608,-0.426 0.612,-0.185 1.659,0.102 0.748,0.151 -0.397,-0.518 1.404,0.437 0.143,0.364 0.905,0.292 0.717,0.039 0.584,0.085 0.041,-0.203 -0.322,-0.464 0.723,0.068 0.265,-0.388 1.079,0.137 0.753,-0.021 0.858,0.534 0.731,0.149 0.327,-0.29 -1.357,-0.815 1.48,0.688 0.394,-0.023 1.68,0.856 0.351,0.519 0.014,0.337 1.741,0.909 1.707,0.587 0.38,-0.129 -0.186,-0.357 -0.992,-0.926 -1.16,-0.409 z" />
    <path
       id="path76"
       d="m -52.061,80.098 -1.137,-0.37 1.607,0.239 -0.306,-0.4 1.473,0.405 -0.184,-0.259 -1.384,-0.787 0.977,0.334 1.527,0.813 0.67,0.115 0.161,-0.126 -0.208,-0.318 -1.405,-0.78 -1.049,-0.573 0.01,-0.407 0.144,-0.392 -0.75,-0.367 -0.972,-0.068 -0.278,-0.323 -0.751,-0.311 -0.702,0.134 -0.462,0.228 -0.705,-0.051 -1.544,-0.288 -1.859,-0.149 -0.831,-0.059 0.533,0.401 -0.23,0.23 -0.66,-0.094 0.804,0.664 0.533,0.088 1.091,0.142 0.629,-0.037 0.967,0.144 -0.544,0.193 -1.211,-0.066 -0.67,0.017 0.436,0.303 1.893,0.326 -0.776,-0.011 -0.337,0.213 1.871,0.603 1.113,0.316 2.43,0.479 z" />
    <path
       id="path78"
       d="m -39.42,80.126 -0.545,-0.492 1.59,0.636 1.729,0.319 -0.661,-0.81 -0.952,-0.522 1.318,0.232 0.962,0.316 0.385,-0.403 0.064,-0.382 -0.467,-0.353 1.168,0.183 -0.232,-0.519 0.754,-0.324 v -0.334 l -0.499,-0.783 -1.445,-0.394 0.585,-0.558 0.639,-0.189 -0.084,-0.797 0.811,-0.058 -0.803,-0.617 -2.042,-1.034 -0.324,0.382 0.01,0.853 -0.849,-0.111 -0.628,-0.507 0.051,-0.519 0.366,-0.413 0.002,-0.24 -0.488,-0.901 -0.832,-0.661 -0.534,0.25 -0.787,0.733 0.066,-0.79 0.105,-0.559 -0.201,-0.324 -1.329,0.371 -0.779,0.537 -0.267,0.447 0.484,0.258 -0.38,0.468 -0.362,0.439 -0.291,-0.262 -1.875,-0.145 -0.129,0.311 1.186,0.661 1.103,0.016 1.32,0.114 0.184,0.317 0.726,0.442 1.758,0.852 0.327,0.383 0.166,0.295 -0.275,0.415 -0.674,0.289 0.632,0.214 0.194,0.522 -0.38,0.047 0.02,0.284 -0.638,-0.246 -1.087,-0.107 -1.563,0.186 -0.671,0.244 -0.604,0.124 0.086,0.29 1.167,0.373 -0.686,0.004 1.345,0.817 1.709,0.708 1.087,0.32 1.554,0.206 z" />
    <path
       id="path80"
       d="m -43.414,82.439 -0.554,-0.262 0.693,0.123 0.34,-0.032 -0.879,-0.363 -1.163,-0.356 -1.738,-0.117 -1.938,-0.33 -0.705,-0.017 0.603,0.248 1.775,0.334 -2.148,-0.089 -0.211,0.134 2.655,0.725 0.981,0.205 0.405,-0.247 -0.493,-0.438 0.571,-0.057 1.359,0.706 1.116,0.264 0.165,-0.083 z" />
    <path
       id="path82"
       d="m 28.517,78.168 -0.213,-0.072 -1.736,0.106 -0.513,0.364 -1.108,0.217 -0.527,0.436 0.298,0.172 -0.495,0.434 0.124,0.669 -0.525,0.094 0.205,0.675 -0.567,0.343 0.389,0.396 0.635,0.474 1.107,0.137 0.217,0.269 0.59,0.093 0.784,-0.285 0.131,-0.227 -0.826,-0.366 -0.717,-0.356 -0.307,-0.721 0.317,-0.756 0.193,-0.76 0.858,-0.667 z" />
    <path
       id="path84"
       d="m -36.386,83.089 -0.147,-0.231 0.773,10e-4 -0.225,-0.239 -0.728,-0.275 0.088,-0.167 -0.13,-0.176 0.486,-0.033 0.47,-0.062 0.995,0.161 0.965,0.063 0.56,-0.052 -0.112,-0.281 -0.502,-0.311 -0.646,-0.202 -0.952,-0.163 -0.375,0.092 -1.471,-0.117 -0.918,-0.014 -0.505,0.094 -0.618,0.245 0.77,0.414 0.792,0.368 0.352,0.321 -0.607,0.089 0.107,0.225 0.903,0.296 z" />
    <path
       id="path86"
       d="m 41.36,83 1.107,-0.357 -0.134,0.176 1.172,-0.009 1.92,-0.356 1.113,-0.276 0.98,-0.387 0.141,-0.222 -0.02,-0.421 0.246,-0.227 0.814,-0.108 1.144,-0.195 0.028,0.146 1.485,-0.499 -0.311,0.203 0.4,0.123 1.768,-0.128 1.063,-0.366 2.218,-0.117 -1.587,0.597 1.324,-0.136 0.704,0.004 1.884,-0.412 1.603,-0.507 0.616,-0.335 2.267,-0.636 1.626,-0.333 -1.777,0.854 1.752,-0.364 0.231,0.218 1.621,-0.25 -0.275,0.228 1.107,-0.114 -2.482,0.746 -0.406,0.344 5.788,-0.516 1.874,-0.478 3.154,-0.622 1.516,0.155 1.398,-0.135 1.467,-0.34 1.778,-0.608 1.343,-0.239 0.174,0.172 0.842,0.022 1.474,-0.164 0.688,0.092 3.214,-0.75 -0.181,0.271 -2.103,0.538 -0.958,0.371 2.375,-0.233 0.896,0.05 2.792,-0.4 1.933,-0.368 10.485,-3.476 0.01,-0.005 0.342,-0.395 -0.941,0.066 1.834,-0.482 2.35,-0.752 0.926,-0.248 1.056,-0.382 0.467,-0.245 -1.66,0.202 0.002,-0.7 -0.293,-0.109 0.596,-0.66 0.404,-0.581 0.732,-0.433 -2.393,0.658 -0.032,-0.747 -1.064,0.354 0.259,-0.408 -1.149,0.131 1.117,-0.63 1.114,-0.936 0.806,-0.393 1.201,-0.219 2.674,-1.433 -0.575,-0.036 1.237,-0.833 1.073,-0.431 -0.331,-0.514 1.736,-1.157 -0.668,-0.248 1.476,-1.041 0.44,-0.962 -1.385,0.712 -2.715,1.495 -4.199,2.241 -2.135,1.376 -0.514,0.586 -0.832,0.457 0.624,0.218 -1.245,1.217 -0.941,0.982 -0.501,0.754 -2.506,1.316 -0.564,-0.078 1.38,-0.767 0.66,-1.034 -3.033,1.157 -0.924,-0.318 1.695,-1.587 1.709,-0.588 -0.981,-0.252 -0.832,-0.099 -1.292,0.696 -1.297,0.145 0.092,-0.471 -2.317,0.165 -1.639,-0.285 1.107,-1.899 1.017,-2.343 1.308,-0.127 1.293,-0.632 1.031,-0.225 -0.296,0.505 0.883,-0.065 2.716,-1.116 1.299,-0.87 0.881,-1.03 1.634,-1.241 1.849,-1.68 0.726,-1.538 0.616,-0.741 0.356,-1.254 0.283,-1.253 0.155,-0.645 -0.432,-0.643 -0.506,-0.014 -1.059,0.533 -0.298,-0.803 0.231,-0.366 -0.38,0.066 0.002,-0.373 0.111,-0.376 0.779,-0.795 -0.208,-0.246 0.03,-0.196 -0.021,-0.329 -0.399,-0.183 -0.103,-0.3 0.397,-0.484 0.008,-0.123 0.497,-0.183 0.907,-0.492 1.862,-1.33 0.816,-0.733 1.048,-1.311 0.151,-0.627 -0.634,-0.22 -0.355,-0.475 -0.727,-0.098 -0.558,0.624 -0.481,0.856 -1.305,1.184 0.496,0.191 -1.375,0.968 -0.595,0.215 0.069,-0.213 -0.178,-0.093 -0.202,0.212 -0.308,0.103 -0.378,0.18 -0.172,0.495 0.093,0.132 -0.248,0.206 -0.296,0.604 -0.213,0.183 -0.6,0.121 -0.659,0.3 -0.91,-0.325 -0.189,-0.523 -0.67,-0.306 0.028,0.52 -0.541,0.435 0.033,0.749 -0.95,0.582 -0.394,-0.392 -0.301,-0.774 0.067,-0.722 -0.793,-0.054 -0.022,-0.523 1.045,-0.761 0.849,-0.185 0.418,-0.507 0.937,-0.33 0.348,0.807 1.112,-0.44 0.583,-0.03 0.602,-0.592 -0.992,-0.317 0.049,-0.614 -0.437,-0.571 0.115,-0.8 1.391,-0.629 1.121,-1.131 1.246,-1.058 1.186,-0.889 0.528,-0.864 -0.375,-0.318 0.594,-0.622 0.755,-0.362 0.417,-0.953 0.293,-0.931 -0.458,-0.105 0.009,-1.276 0.035,-1.552 -0.194,-1.418 -0.802,-1.099 -0.889,-1.006 -1.015,-0.137 -0.366,-0.532 -0.486,0.388 -0.301,-0.595 -1.102,-0.6 -0.942,-0.184 0.134,-1.27 -0.508,-0.07 -0.563,0.873 0.056,0.464 -1.425,0.384 -0.38,-0.195 -0.911,-1.028 -0.417,-1.137 0.057,-0.837 1.132,-1.275 1.366,-1.583 1.091,-0.75 0.851,-0.977 0.996,-2.255 0.321,-2.151 -0.671,-0.806 -0.993,-0.789 -0.642,-1.023 -1.069,-1.143 -0.473,0.788 0.15,0.831 -0.848,0.697 -0.859,0.179 -0.512,0.638 -0.733,1.264 -0.995,0.562 -0.838,-0.023 -0.05,0.959 -0.864,-0.007 0.189,-1.343 -0.216,-1.788 -0.15,-1.083 0.198,-0.888 0.652,-0.039 0.553,-1.121 0.307,-1.064 0.633,-0.704 0.618,-0.143 0.581,-0.639 0.24,-0.115 0.656,-0.743 0.486,-0.825 0.117,-0.83 -0.072,-0.561 0.121,-0.423 0.109,-0.73 0.366,-0.34 0.429,-1.091 -0.009,-0.417 -0.708,-0.082 -0.969,0.914 -1.218,0.979 -0.146,0.628 -0.623,0.824 -0.206,1.021 -0.412,0.671 0.031,0.897 -0.269,0.522 -0.442,0.472 -0.236,0.609 -0.609,0.694 -0.553,0.583 -0.075,-0.722 -0.271,0.683 0.008,0.766 0.124,1.177 -0.237,0.91 0.147,0.938 -0.461,0.724 -0.174,1.332 -0.528,0.632 -0.634,1.459 -0.537,1.537 -0.673,1.005 -0.488,-0.608 -0.902,-0.866 -0.573,0.108 -0.671,0.285 -0.032,1.504 -0.499,1.134 -1.142,1.393 -0.007,0.434 -0.609,0.155 -0.972,0.982 -0.464,0.627 -0.246,0.611 -0.366,0.577 -0.625,0.697 -0.891,0.048 0.246,-0.494 -0.089,-0.666 -0.482,0.243 -0.07,-0.219 -0.311,0.131 -0.403,0.108 -0.002,-0.438 -0.655,0.015 -1.104,-0.249 0.317,-0.904 -0.314,-0.712 -1.169,-0.811 -0.727,-1.421 -0.55,-0.764 -0.791,-0.793 0.119,-0.558 -0.424,-0.299 -0.79,-0.436 -0.443,-0.064 -0.114,-0.928 0.489,-1.584 0.221,-1.013 -0.238,-1.161 0.282,-2.081 -0.505,-0.059 -0.338,-0.936 0.347,-0.404 -0.866,-0.348 -0.249,-0.836 -0.365,-0.353 -1.054,1.147 -0.652,1.718 -0.535,1.236 -0.424,0.579 -0.691,1.175 -0.479,1.527 -0.295,0.761 -1.183,1.671 -0.858,2.351 -0.617,1.547 -0.327,1.459 -0.456,1.126 -1.222,-0.719 -0.71,0.144 -1.594,1.455 0.353,0.433 -0.398,0.469 -1.371,1.014 -0.771,0.302 -0.505,0.856 -0.969,0.904 -1.671,-0.223 -1.522,-0.022 -1.282,-0.167 -1.856,0.359 -1.089,0.273 -1.095,0.154 -0.75,1.45 -0.497,0.209 -0.664,-0.21 -0.805,-0.572 -1.231,0.392 -1.149,0.906 -0.971,0.336 -0.88,1.115 -1.056,1.56 -0.445,-0.189 -0.675,0.387 -0.232,-0.456 -0.557,0.057 0.312,-0.516 -0.02,-0.267 0.497,-0.884 0.587,-1.014 0.516,-0.269 0.249,-0.415 0.742,-0.496 0.161,-0.488 -0.01,-0.394 0.201,-0.399 0.338,-0.332 0.205,-0.39 0.199,-0.291 -0.238,0.864 0.122,0.622 0.228,0.128 0.363,-0.372 0.163,-0.694 -0.061,-0.7 0.271,-0.454 0.156,0.058 0.1,-0.327 0.702,0.188 0.788,-0.031 0.578,-0.035 0.476,0.804 0.533,0.762 0.424,0.73 0.176,0.403 0.14,-0.102 0.028,-0.489 -0.072,-0.215 0.342,-0.938 0.603,-0.813 0.622,-0.432 0.729,-0.156 0.609,-0.218 0.577,-0.684 0.342,-0.398 0.373,-0.151 0.055,-0.267 -0.199,-0.715 -0.085,-0.336 -0.328,-0.384 -0.199,-0.824 -0.448,0.063 -0.147,-0.287 -0.043,-0.611 0.26,-0.806 -0.066,-0.149 -0.445,0.005 -0.529,-0.452 0.002,-0.589 -0.182,-0.256 -0.605,0.01 -0.333,-0.305 0.079,-0.49 -0.422,-0.336 -0.553,0.114 -0.593,-0.409 -0.44,-0.069 -0.661,-0.326 -0.118,-0.539 0.03,-0.415 -0.91,-0.513 -1.498,-0.568 -0.784,-0.86 -0.425,-0.067 -0.302,0.072 -0.523,-0.507 -0.603,-0.235 -0.819,-0.063 -0.242,-0.069 -0.185,-0.323 -0.25,-0.089 -0.125,-0.311 -0.49,0.027 -0.3,-0.166 -0.687,0.063 -0.318,0.713 -0.032,0.667 -0.194,0.36 -0.278,0.902 -0.331,0.5 0.19,0.059 -0.158,0.556 0.094,0.234 -0.1,0.53 -0.183,0.518 -0.335,0.366 -0.13,0.483 -0.551,0.434 -0.637,1.015 -0.393,0.983 -0.771,0.83 -0.454,0.197 -0.783,1.146 -0.222,0.834 -0.057,0.71 -0.733,1.325 -0.512,0.465 -0.546,0.246 -0.41,0.682 0.012,0.269 -0.354,0.615 -0.314,0.265 -0.5,0.88 -0.716,0.953 -0.601,0.809 -0.46,-0.006 0.041,0.645 -0.026,0.411 0.036,0.467 -0.059,0.17 -0.18,-0.471 -0.055,-0.886 -0.156,-0.613 -0.185,-0.206 -0.367,0.38 -0.497,0.525 -0.918,1.68 -0.077,-0.106 0.572,-1.236 0.747,-1.182 0.973,-1.84 0.437,-0.644 0.396,-0.67 1.028,-1.318 -0.16,-0.208 0.134,-0.776 1.247,-1.074 0.199,-0.245 0.456,-1.178 -0.183,-0.218 0.286,-1.239 0.516,-1.441 0.401,-0.298 0.579,-0.447 0.711,-1.403 0.38,-1.114 0.592,-0.592 1.444,-1.151 0.609,-0.694 0.595,-0.704 0.344,-0.42 0.515,-0.368 0.264,-0.378 0.011,-0.508 -0.54,-0.292 0.449,-0.335 0.339,-0.226 0.231,-0.506 0.483,-0.514 0.492,-0.004 0.91,0.314 1.065,0.145 0.84,0.381 0.484,0.08 0.334,0.224 0.559,0.043 0.313,0.024 0.44,0.182 0.512,0.123 0.428,0.419 0.374,0.003 0.054,-0.338 -0.027,-0.712 0.059,-0.644 L 50.329,12.656 50.15,11.33 49.764,9.958 49.237,8.387 48.464,6.583 47.661,5.204 46.529,3.522 45.546,2.524 44.064,1.299 43.136,0.361 l -1.098,-1.495 -0.235,-0.65 -0.229,-0.292 -0.706,-0.493 -0.254,-0.515 -0.376,-0.09 -0.157,-0.869 -0.332,-0.497 -0.214,-0.82 -0.413,-0.407 -0.509,-1.518 0.034,-0.697 0.62,-0.449 0.016,-0.32 -0.307,-0.742 0.039,-0.374 -0.094,-0.587 0.306,-0.77 0.34,-1.21 0.346,-0.268 0.124,-0.549 -0.126,-1.22 0.04,-1.073 -0.122,-1.908 0.118,-0.597 -0.374,-0.87 -0.462,-0.844 -0.697,-0.753 -0.937,-0.461 -1.156,-0.588 -1.23,-1.299 -0.395,-0.221 -0.766,-0.857 -0.427,-0.279 -0.176,-0.859 0.35,-0.91 0.105,-0.704 -0.032,-0.359 0.176,0.06 -0.177,-1.173 -0.227,-0.555 0.196,-0.204 -0.208,-0.496 -0.452,-0.424 -0.832,-0.402 -1.218,-0.643 -0.471,-0.439 0.013,-0.499 0.228,-0.079 -0.167,-0.623 -0.356,-0.859 -0.253,-0.978 -0.318,-0.53 -0.717,-0.592 -0.205,-0.169 -0.478,-0.594 -0.346,-0.6 -0.644,-0.834 -1.207,-1.198 -0.742,-0.693 -0.757,-0.525 -1.002,-0.447 -0.464,-0.06 -0.161,-0.319 -0.517,0.169 -0.472,-0.218 -0.936,0.221 -0.558,-0.14 -0.361,0.06 -0.975,-0.453 -0.78,-0.182 -0.599,-0.433 -0.406,-0.027 -0.329,0.408 -0.297,0.021 -0.328,0.512 -0.059,-0.159 -0.086,0.309 0.074,0.675 -0.215,0.773 0.311,0.211 0.062,0.889 -0.494,1.088 -0.374,0.988 -10e-4,0.003 -0.539,1.522 -0.622,0.888 -0.305,0.861 -0.132,1.151 -0.178,0.859 -0.211,1.832 0.055,1.429 -0.089,0.653 -0.347,0.494 -0.449,0.992 -0.445,1.445 -0.181,0.757 -0.746,1.18 -0.029,0.929 -0.068,0.763 0.167,1.068 0.369,1.114 0.065,0.523 0.348,1.099 0.248,0.5 0.586,0.8 0.33,0.544 0.126,0.907 -0.036,0.694 -0.286,0.438 -0.249,0.744 -0.229,0.736 0.058,0.255 0.313,0.487 -0.282,1.188 -0.192,0.823 -0.489,0.779 0.097,0.239 -0.135,0.382 -0.257,0.926 -0.81,1.305 -1.019,1.244 -0.657,1.018 -0.604,1.274 0.033,0.41 0.218,0.394 L 9.291,0.331 9.492,1.246 9.305,1.432 9.645,2.817 9.787,3.791 9.392,4.606 8.935,4.815 8.729,5.367 8.473,5.544 8.482,5.885 7.448,5.441 7.069,5.506 6.687,5.23 5.888,5.257 5.351,6.028 5.019,6.919 4.31,7.73 3.561,7.715 2.682,7.716 1.859,7.572 1.057,7.309 -0.506,6.589 -1.061,6.166 -1.961,5.809 -2.849,6.159 -3.303,6.146 -3.999,6.387 -4.638,6.373 -5.821,6.158 -6.515,5.802 -7.506,5.35 -7.698,5.383 -7.96,5.372 l -1.025,0.587 -0.899,0.938 -0.843,0.673 -0.662,0.794 -0.267,0.092 -0.71,0.495 -0.509,0.659 -0.167,0.449 -0.106,0.908 -0.421,0.726 -0.376,0.481 -0.25,0.158 -0.242,0.244 -0.099,0.542 -0.138,0.27 -0.283,0.2 -0.514,0.512 -0.413,0.081 -0.217,0.345 0.011,0.186 -0.292,0.26 -0.055,0.262 -0.13,0.936 0.144,0.542 -0.37,0.949 -0.472,0.434 0.44,0.231 0.508,0.855 0.258,0.624 -0.057,0.654 0.297,0.598 0.172,1.141 -0.051,1.194 -0.087,0.6 0.127,0.601 -0.219,0.572 -0.477,0.519 0.07,0.508 0.078,0.556 0.385,0.326 0.348,0.624 -0.037,0.405 0.377,0.843 0.571,0.757 0.329,0.192 0.291,0.693 0.06,0.633 0.383,0.732 0.648,0.431 0.661,1.205 0.51,0.469 0.867,0.13 0.77,0.803 0.477,0.312 0.813,0.977 -0.158,1.45 0.394,0.998 0.152,0.61 0.615,0.78 0.921,0.526 0.68,0.475 0.638,1.186 0.302,0.701 0.646,-0.005 0.517,-0.485 0.839,0.079 0.909,-0.252 0.383,-0.012 0.853,0.624 0.95,0.198 0.553,0.469 0.839,0.346 1.475,0.202 1.438,0.092 0.445,-0.168 0.803,0.446 0.928,0.009 0.367,-0.264 0.591,0.069 0.92,0.457 0.616,-0.135 0.012,-0.574 0.71,0.417 0.077,-0.217 -0.398,-0.556 0.028,-0.526 0.322,-0.283 -0.052,-0.989 -0.548,-0.576 0.205,-0.626 0.463,-0.02 0.258,-0.547 0.352,-0.18 1.08,-0.397 0.37,0.099 0.764,-0.193 1.235,-0.517 0.507,-1.03 0.833,-0.226 1.324,-0.487 1.025,-0.579 0.416,0.302 0.383,0.536 -0.303,0.89 0.224,0.563 0.588,0.542 0.601,0.158 1.243,-0.237 0.371,-0.517 0.337,-0.005 0.312,-0.197 0.915,-0.136 0.271,-0.383 1.202,0.019 0.915,-0.307 0.95,-0.344 0.448,-0.181 0.645,0.369 0.321,0.333 0.784,0.095 0.668,-0.146 0.342,-0.577 0.148,0.38 0.774,-0.275 0.72,-0.066 0.396,0.293 0.195,0.383 -0.073,0.066 0.14,0.542 0.019,0.873 0.072,0.292 0.023,0.012 0.133,0.937 0.276,0.809 0.009,0.04 -0.268,0.875 0.113,0.469 -0.435,0.516 0.236,0.427 -0.511,-0.097 -0.787,0.261 -0.461,-0.653 -1.303,-0.128 -0.828,0.61 -0.948,0.038 -0.112,-0.471 -0.58,-0.135 -0.955,0.605 -0.948,-0.021 -0.71,1.126 -0.739,0.625 0.263,0.874 -0.637,0.536 0.742,1.067 1.291,0.044 0.178,0.844 1.63,-0.147 0.839,0.718 0.894,0.312 1.369,0.023 1.662,-0.779 1.319,-0.428 0.93,0.171 0.751,-0.099 0.817,0.578 -0.021,0.472 -0.441,0.751 -0.603,0.404 -0.495,0.126 -0.405,0.335 -1.326,0.922 -1.05,0.409 -0.888,0.636 0.531,0.173 0.378,0.901 -0.581,0.424 1.018,0.436 -0.1,0.233 -0.648,-0.171 -0.6,-0.086 -0.414,-0.346 -0.723,-0.056 -0.562,-0.4 0.243,-0.669 0.469,-0.26 0.798,0.065 -0.041,-0.386 -0.827,-0.187 -0.923,-0.628 -0.511,0.221 0.04,0.51 -0.964,0.316 0.086,0.207 0.666,0.358 -0.3,0.246 -1.31,0.272 -0.163,0.399 -0.698,-0.132 -0.141,-0.59 -0.42,-0.797 0.086,-0.279 -0.335,-0.233 -0.269,0.102 0.073,-1.312 -0.325,-0.453 -0.134,-0.784 0.399,-0.628 0.187,-0.425 0.804,-0.357 -0.096,-0.271 -0.984,-0.061 -0.292,-0.344 -0.591,-0.599 -0.361,0.518 -0.031,0.23 -0.518,0.031 -0.458,0.105 -0.968,-0.289 0.691,-0.625 -0.399,-0.182 -0.472,-10e-4 -0.54,0.574 -0.12,-0.245 0.295,-0.666 0.509,-0.525 -0.284,-0.245 0.558,-0.518 0.477,-0.326 0.112,-0.637 -0.845,0.299 0.342,-0.576 -0.533,-0.119 0.474,-1 -0.578,-0.014 -0.784,0.493 -0.449,0.906 -0.254,0.749 -0.407,0.517 -0.526,0.639 -0.102,0.319 -0.155,0.078 -0.051,0.246 -0.52,0.374 -0.146,0.53 -0.035,0.756 0.065,0.344 -0.165,0.174 -0.187,0.085 -0.283,0.36 -0.389,0.218 -0.832,0.407 -0.529,0.394 -0.792,0.325 -0.784,0.803 0.154,0.081 -0.425,0.456 -0.06,0.366 -0.537,0.171 -0.193,-0.468 -0.279,0.363 -0.024,0.375 0.026,0.017 0.167,0.098 -0.654,0.157 -0.611,-0.382 0.099,-0.537 -0.068,-0.309 0.321,-0.554 0.821,-0.549 0.51,-0.905 1.019,-0.887 0.651,0.007 0.232,-0.244 -0.209,-0.22 0.797,-0.4 0.658,-0.336 0.796,-0.579 0.115,-0.208 -0.107,-0.399 -0.536,0.52 -0.756,0.183 -0.272,-0.721 0.662,-0.414 -0.033,-0.585 -0.351,-0.066 -0.354,-0.965 -0.351,-0.087 -0.032,0.345 0.112,0.603 0.161,0.239 -0.404,0.649 -0.319,0.563 -0.367,0.139 -0.299,0.481 -0.562,0.202 -0.407,0.445 -0.627,0.072 -0.699,0.5 L 9.273,50.397 8.659,51.03 8.316,52.111 7.901,52.237 7.213,52.596 6.849,52.45 6.411,51.944 6.077,51.864 5.367,51.246 3.736,51.543 2.55,51.188 2.471,50.527 2.53,49.887 1.752,49.15 0.68,48.916 0.607,48.543 0.09,47.926 -0.238,47.017 0.095,46.376 -0.402,45.874 -0.591,45.141 -1.246,44.916 -1.872,44.045 -2.979,44.028 -3.81,44.05 l -0.558,-0.401 -0.349,-0.43 -0.425,0.094 -0.31,0.385 -0.222,0.652 -0.804,0.176 -0.363,-0.294 -0.451,0.159 -0.456,-0.125 0.182,0.886 -0.041,0.693 -0.379,0.104 -0.178,0.426 0.115,0.733 0.364,0.406 0.089,0.451 0.218,0.669 0.011,0.47 -0.142,0.398 -0.012,0.372 0.095,0.784 -0.304,0.476 1.213,0.79 0.99,-0.198 1.099,0.007 0.864,-0.186 0.682,0.057 1.324,-0.036 0.431,0.655 0.176,2.156 -0.801,1.124 -0.567,0.539 -1.179,0.409 -0.047,0.771 1.008,0.23 1.289,-0.272 -0.224,1.19 0.715,-0.449 1.771,0.816 0.214,0.853 0.65,0.209 0.593,0.204 0.373,0.284 0.577,1.508 0.968,0.426 0.602,-0.028 0.125,0.214 0.598,0.055 0.153,-0.223 0.443,0.499 -0.199,0.379 -0.086,0.57 -0.338,0.554 -0.116,1.015 0.089,0.266 0.167,0.296 0.594,0.06 0.208,0.271 0.51,0.276 0.041,-0.504 -0.163,-0.32 0.116,-0.276 0.392,-0.149 -0.122,-0.374 -0.22,0.108 -0.419,-0.716 0.244,-0.487 0.056,-0.388 0.746,-0.235 0.035,-0.358 0.704,0.19 0.365,0.276 0.863,-0.398 0.387,-0.323 0.445,0.298 1.035,0.466 0.83,0.34 0.741,-0.17 0.104,-0.245 0.69,-0.013 0.065,0.443 0.9,0.325 -0.35,0.837 -0.159,0.745 0.178,0.617 0.549,0.334 0.741,-0.732 0.542,0.019 -0.088,0.752 -0.094,0.573 -0.209,-0.122 -0.525,0.344 -0.221,0.555 0.747,0.267 0.777,0.139 0.763,-0.158 0.664,0.028 0.543,0.529 -0.845,0.451 -1.136,-0.075 -1.016,-0.349 -0.992,-0.201 -0.528,0.52 -0.71,0.311 -0.13,0.926 -0.553,0.839 0.126,0.537 0.359,0.574 0.998,0.981 0.315,0.188 -0.211,0.378 -0.958,0.419 -0.886,-0.251 -0.345,-0.622 0.272,-0.552 -0.72,-0.731 -0.954,-0.79 -0.13,-1.311 0.608,-0.664 0.743,-0.527 -0.345,-1.081 -0.638,-0.226 0.075,-1.636 -0.215,-0.925 -0.858,0.096 -0.265,-0.789 -0.806,-0.046 -0.358,0.94 -0.735,1.117 -0.703,1.375 -0.521,0.59 -1.173,-1.116 -0.87,-0.227 -0.962,0.494 -0.308,1.034 -0.352,2.18 0.523,0.597 1.524,0.773 1.041,0.938 0.835,1.248 0.951,1.688 0.72,0.645 1.083,1.058 0.972,0.364 0.847,-0.044 0.443,0.682 0.913,-0.036 0.792,0.162 1.894,-0.6 -0.516,-0.221 0.858,-0.524 0.356,0.291 1.153,-0.507 1.552,-0.201 2.662,-0.964 0.703,-0.41 0.438,-0.58 -0.313,-0.461 -0.773,-0.236 -2.903,0.669 -0.347,-0.111 1.276,-0.646 0.801,-1.33 0.91,-0.277 0.595,-0.236 -0.169,0.441 -0.593,0.402 0.196,0.326 1.743,-0.56 0.358,0.22 -0.801,0.655 0.749,0.867 0.553,-0.05 0.745,-0.309 -0.112,0.605 -0.845,0.52 -0.125,0.516 -0.802,0.532 1.705,-0.274 0.697,-0.482 -0.603,-0.107 0.377,-0.483 0.666,-0.3 0.71,0.19 -0.316,0.555 0.782,0.411 1.179,0.733 0.437,-0.042 -0.026,-0.517 0.749,-0.09 0.099,0.293 0.971,0.023 0.417,0.353 1.146,-0.513 -0.008,0.564 -1.085,0.488 -0.044,0.276 1.805,-0.253 1.025,-0.263 3.072,-0.972 -0.188,0.448 -1.088,0.448 -0.239,0.179 -0.725,0.082 -0.327,0.397 -1.096,0.645 -0.358,0.263 -0.107,0.734 -0.739,0.724 0.11,0.155 1.535,-0.208 0.775,-0.442 0.512,-0.654 0.676,-0.259 0.972,-0.575 1.438,-1.146 1.264,-0.521 0.505,-0.572 0.421,-1.239 0.796,-0.13 -0.153,0.317 0.34,0.225 -0.39,0.432 -0.054,0.412 -0.95,0.488 -0.504,0.562 -0.665,0.069 -0.759,0.468 -0.768,0.834 -1.607,0.666 0.036,0.544 -0.999,0.565 0.201,0.018 0.947,-0.44 1.01,-0.777 0.746,-0.149 -1.117,0.584 0.293,0.315 0.906,0.043 1.637,-0.458 -1.541,0.667 -1.507,0.837 0.489,0.156 1.132,-0.034 0.765,0.101 -1.148,0.402 -0.521,0.498 0.44,0.02 0.004,0.371 0.86,0.099 -0.334,0.203 0.896,0.068 0.731,-0.165 -0.065,0.389 0.76,-0.012 -0.713,0.313 -0.459,0.306 0.069,0.291 1.306,-0.23 -0.02,-0.176 z m -0.242,-33.787 0.706,-0.788 0.411,-0.051 0.367,-0.301 -0.665,-0.089 0.149,-0.867 -0.016,-0.392 -0.227,-0.263 0.203,-0.556 0.539,-0.832 0.896,-0.235 0.785,-0.568 1.302,-0.196 1.26,0.3 -0.007,0.265 -0.437,0.799 -0.294,1.177 -0.803,0.379 -0.062,0.765 -0.586,0.065 -0.164,0.938 0.898,-0.273 0.601,0.355 -0.872,0.665 -0.49,0.632 -0.558,-0.282 0.228,-0.81 -0.537,0.717 -0.151,0.269 0.024,0.458 -0.31,0.383 -1.103,0.374 -0.761,0.981 -0.56,0.275 -0.17,0.354 0.83,-0.103 -0.299,0.792 0.608,0.175 0.771,-0.161 -0.322,1.051 -0.443,0.662 -0.766,-0.051 -0.787,0.26 -0.709,-0.47 -0.644,-0.224 -0.099,-0.638 -0.704,-0.177 -0.368,-1.117 1.126,-1.033 0.19,-0.737 1.373,-1.295 z" />
    <path
       id="path88"
       d="m -28.985,84.861 -0.175,-0.216 -1,-0.201 -1.989,-0.516 -0.769,-0.05 -0.515,0.089 0.383,0.28 0.699,0.247 0.783,0.18 -0.635,-0.005 0.292,0.221 0.714,0.299 1.142,0.288 0.851,0.195 0.46,0.045 0.347,0.145 0.802,0.032 -0.692,-0.339 0.107,-0.138 0.159,-0.122 z" />
    <path
       id="path90"
       d="m -17.507,87.011 0.557,-0.046 0.356,-0.074 0.076,-0.16 -0.402,-0.159 -1.315,-0.263 -0.995,-0.124 -0.603,-0.139 0.645,0.003 -1.607,-0.381 -0.929,-0.182 -1.776,-0.533 -0.936,-0.11 -0.526,-0.136 -1.194,-0.072 0.274,-0.084 -0.516,-0.121 -0.466,-0.337 -0.861,-0.238 -0.996,-0.197 -0.773,-0.276 -0.986,-0.213 -0.291,-0.162 0.718,0.028 -0.354,-0.176 -1.949,-0.437 -0.622,0.202 -1.414,-0.114 -0.396,0.089 -0.663,0.038 0.763,0.347 1.095,0.163 1.048,0.511 0.346,0.049 0.265,-0.304 0.574,0.45 -0.254,0.134 0.969,0.266 1.037,0.162 0.707,0.235 0.224,0.261 0.808,0.339 0.799,-0.028 0.061,-0.071 1.144,0.237 -0.501,0.075 -1.218,-0.041 0.104,0.217 0.55,0.256 0.253,0.183 0.647,0.211 0.818,0.116 0.394,0.019 0.876,0.098 1.155,0.223 0.226,-0.031 -0.259,-0.167 1.264,0.32 0.658,0.094 0.676,0.064 0.856,0.024 -0.064,-0.063 1.042,0.098 0.437,-0.036 z" />
    <path
       id="path92"
       d="m -6.651,87.248 1.132,-0.459 -0.695,-0.229 -1.075,-0.027 -1.552,-0.059 0.01,-0.108 1.066,0.067 0.643,-0.21 0.718,0.187 0.05,-0.22 -0.619,-0.362 0.938,0.233 1.56,0.239 0.794,-0.119 0.045,-0.266 -1.47,-0.452 -0.26,-0.149 -1.092,-0.113 0.728,-0.031 -0.668,-0.483 -0.534,-0.439 -0.423,-0.774 0.216,-0.466 -0.619,-0.029 -0.767,-0.229 0.529,-0.387 -0.21,-0.631 -0.482,-0.07 0.248,-0.653 -0.995,-0.055 0.361,-0.313 -0.272,-0.275 -0.693,-0.12 -0.633,-0.003 0.311,-0.534 -0.159,-0.354 -0.766,0.33 -0.35,-0.213 0.536,-0.2 0.398,-0.493 -0.1,-0.658 -0.957,-0.159 -0.235,0.317 -0.373,0.469 -0.111,-0.554 -0.795,-0.434 1.311,-0.035 0.675,-0.045 -1.693,-0.729 -1.744,-0.668 -1.713,-0.296 -0.593,-0.003 -0.743,-0.332 -1.284,-0.918 -1.566,-0.617 -0.413,-0.037 -0.89,-0.218 -0.953,-0.208 -0.845,-0.554 -0.402,-0.633 -0.667,-0.598 -1.44,-0.736 -0.188,-0.725 -0.737,-0.776 -0.86,-0.924 -0.944,-0.058 -0.479,0.774 -1.269,0.005 -0.272,0.516 0.214,0.911 -0.211,1.145 0.159,0.593 0.571,0.809 -0.1,0.82 0.771,0.648 -0.092,0.308 1.465,1.007 1.092,0.317 0.535,0.355 0.727,0.655 -0.869,-0.296 -0.401,-0.125 -0.581,-0.12 -0.359,0.274 0.549,0.566 0.658,0.439 0.47,0.011 0.79,-0.218 -0.315,0.52 -0.135,0.278 -0.607,-0.114 -0.178,0.201 1.382,0.746 0.065,0.295 0.3,0.541 0.528,0.815 -0.138,0.293 0.449,0.314 -0.451,0.433 -0.77,0.054 -1.123,-0.03 -1.075,-0.054 -0.056,0.233 0.157,0.456 1.428,0.225 0.833,0.038 -1.263,0.184 -0.257,0.287 0.616,0.27 2.029,0.33 1.924,0.324 0.627,0.243 -0.378,0.236 0.856,0.259 2.066,0.445 0.584,0.068 0.512,0.279 1.044,0.161 1.073,0.095 0.863,0.005 -0.079,-0.189 1.399,0.333 0.229,-0.225 0.309,-0.048 0.255,-0.2 -0.108,0.329 0.509,0.257 1.522,0.349 0.843,-0.026 0.675,0.211 0.949,0.054 z" />
  </g>
  <g
     id="g98"
     transform="matrix(1.6694444,0,0,1.6694444,302.16944,151.91944)">
    <g
       id="text96"
       style="font-weight:900;font-size:80px;font-family:Montserrat;text-anchor:middle;fill:#ff0000;stroke:#000000;stroke-width:2"
       aria-label="WCARC">
      <path
         id="path118"
         style="font-weight:900;font-size:80px;font-family:Montserrat;text-anchor:middle;fill:#ff0000;stroke:#000000;stroke-width:2"
         d="m -70.679375,-28 -17.92,56 h -20.240005 l -9.04,-29.92 -9.51999,29.92 h -20.24 l -17.92,-56 h 19.44 l 9.76,31.84 10.31999,-31.84 h 17.36001 l 9.759995,32.24 10.32,-32.24 z" />
      <path
         id="path120"
         style="font-weight:900;font-size:80px;font-family:Montserrat;text-anchor:middle;fill:#ff0000;stroke:#000000;stroke-width:2"
         d="m -38.464375,29.28 q -8.88,0 -16,-3.68 -7.12,-3.76 -11.2,-10.4 -4,-6.72 -4,-15.2 0,-8.48 4,-15.12 4.08,-6.72 11.2,-10.4 7.12,-3.76 16,-3.76 8.16,0 14.56,2.88 6.4,2.88 10.56,8.32 l -11.92,10.64 q -5.2,-6.56 -12.24,-6.56 -5.92,0 -9.52,3.84 -3.6,3.76 -3.6,10.16 0,6.4 3.6,10.24 3.6,3.76 9.52,3.76 7.04,0 12.24,-6.56 l 11.92,10.64 q -4.16,5.44 -10.56,8.32 -6.4,2.88 -14.56,2.88 z" />
      <path
         id="path122"
         style="font-weight:900;font-size:80px;font-family:Montserrat;text-anchor:middle;fill:#ff0000;stroke:#000000;stroke-width:2"
         d="m 29.485625,18.24 h -21.28 l -3.76,9.76 h -19.2 l 24.48,-56 h 18.56 l 24.48,56 h -19.52 z m -5.2,-13.6 -5.44,-14.08 -5.44,14.08 z" />
      <path
         id="path124"
         style="font-weight:900;font-size:80px;font-family:Montserrat;text-anchor:middle;fill:#ff0000;stroke:#000000;stroke-width:2"
         d="m 79.856875,13.92 h -5.12 V 28 h -18.88 v -56 h 26.96 q 7.76,0 13.52,2.56 5.759995,2.56 8.880005,7.36 3.11999,4.8 3.11999,11.2 0,6 -2.71999,10.48 -2.72001,4.48 -7.840005,7.12 L 109.53687,28 H 89.376875 Z m 9.44,-20.8 q 0,-3.12 -1.92,-4.8 -1.92,-1.76 -5.76,-1.76 h -6.88 v 13.12 h 6.88 q 3.84,0 5.76,-1.68 1.92,-1.76 1.92,-4.88 z" />
      <path
         id="path126"
         style="font-weight:900;font-size:80px;font-family:Montserrat;text-anchor:middle;fill:#ff0000;stroke:#000000;stroke-width:2"
         d="m 144.34812,29.28 q -8.88,0 -16,-3.68 -7.11999,-3.76 -11.2,-10.4 -4,-6.72 -4,-15.2 0,-8.48 4,-15.12 4.08001,-6.72 11.2,-10.4 7.12,-3.76 16,-3.76 8.16,0 14.56,2.88 6.40001,2.88 10.56,8.32 l -11.92,10.64 q -5.2,-6.56 -12.24,-6.56 -5.92,0 -9.52,3.84 -3.59999,3.76 -3.59999,10.16 0,6.4 3.59999,10.24 3.6,3.76 9.52,3.76 7.04,0 12.24,-6.56 l 11.92,10.64 q -4.15999,5.44 -10.56,8.32 -6.4,2.88 -14.56,2.88 z" />
    </g>
  </g>
</svg>
